<svg width="488.775" height="75" viewBox="0 0 488.775 75"><g id="svgGroup" stroke-linecap="round" fill-rule="evenodd" font-size="9pt" stroke="#000" stroke-width="0.25mm" fill="none" style="stroke:#000;stroke-width:0.25mm;fill:none"><path d="M 89.858 37.5 m -3 0 a 3 3 0 0 1 6 0 a 3 3 0 0 1 -6 0 z M 151.047 37.5 m -3 0 a 3 3 0 0 1 6 0 a 3 3 0 0 1 -6 0 z M 205.56 37.5 m -3 0 a 3 3 0 0 1 6 0 a 3 3 0 0 1 -6 0 z M 254.125 37.5 m -3 0 a 3 3 0 0 1 6 0 a 3 3 0 0 1 -6 0 z M 317.221 56.25 m -3 0 a 3 3 0 0 1 6 0 a 3 3 0 0 1 -6 0 z M 317.221 18.75 m -3 0 a 3 3 0 0 1 6 0 a 3 3 0 0 1 -6 0 z M 370.279 37.5 m -3 0 a 3 3 0 0 1 6 0 a 3 3 0 0 1 -6 0 z M 400.873 37.5 m -3 0 a 3 3 0 0 1 6 0 a 3 3 0 0 1 -6 0 z M 428.13 37.5 m -3 0 a 3 3 0 0 1 6 0 a 3 3 0 0 1 -6 0 z M 452.412 37.5 m -3 0 a 3 3 0 0 1 6 0 a 3 3 0 0 1 -6 0 z M 483.961 56.25 m -3 0 a 3 3 0 0 1 6 0 a 3 3 0 0 1 -6 0 z M 483.961 18.75 m -3 0 a 3 3 0 0 1 6 0 a 3 3 0 0 1 -6 0 z M 0 75 0 0 M 3 75 3 0 M 39.353 75 39.353 0 M 73.665 75 73.665 0 M 106.051 75 106.051 0 M 136.62 75 136.62 0 M 165.473 75 165.473 0 M 192.707 75 192.707 0 M 218.412 75 218.412 0 M 242.675 75 242.675 0 M 265.575 75 265.575 0 M 287.191 75 287.191 0 M 307.593 75 307.593 0 M 326.85 75 326.85 0 M 345.026 75 345.026 0 M 362.182 75 362.182 0 M 378.376 75 378.376 0 M 393.66 75 393.66 0 M 408.087 75 408.087 0 M 421.703 75 421.703 0 M 434.556 75 434.556 0 M 446.687 75 446.687 0 M 458.138 75 458.138 0 M 468.945 75 468.945 0 M 479.146 75 479.146 0 M 488.775 75 488.775 0" vector-effect="non-scaling-stroke"/></g></svg>