  0
SECTION
  2
HEADER
  9
$ACADVER
  1
AC1009
  9
$DWGCODEPAGE
  3
ansi_1252
  9
$INSBASE
 10
0.0
 20
0.0
 30
0.0
  9
$EXTMIN
 10
1.647665771327792
 20
0.4287591003077189
 30
0.0
  9
$EXTMAX
 10
21.84240198043612
 20
4.562948953729686
 30
0.0
  9
$LIMMIN
 10
0.0
 20
0.0
  9
$LIMMAX
 10
12.0
 20
9.0
  9
$ORTHOMODE
 70
     0
  9
$REGENMODE
 70
     1
  9
$FILLMODE
 70
     1
  9
$QTEXTMODE
 70
     0
  9
$MIRRTEXT
 70
     1
  9
$DRAGMODE
 70
     2
  9
$LTSCALE
 40
1.0
  9
$OSMODE
 70
    37
  9
$ATTMODE
 70
     1
  9
$TEXTSIZE
 40
0.2
  9
$TRACEWID
 40
0.05
  9
$TEXTSTYLE
  7
STANDARD
  9
$CLAYER
  8
0
  9
$CELTYPE
  6
BYLAYER
  9
$CECOLOR
 62
   256
  9
$DIMSCALE
 40
1.0
  9
$DIMASZ
 40
0.18
  9
$DIMEXO
 40
0.0625
  9
$DIMDLI
 40
0.38
  9
$DIMRND
 40
0.0
  9
$DIMDLE
 40
0.0
  9
$DIMEXE
 40
0.18
  9
$DIMTP
 40
0.0
  9
$DIMTM
 40
0.0
  9
$DIMTXT
 40
0.18
  9
$DIMCEN
 40
0.09
  9
$DIMTSZ
 40
0.0
  9
$DIMTOL
 70
     0
  9
$DIMLIM
 70
     0
  9
$DIMTIH
 70
     1
  9
$DIMTOH
 70
     1
  9
$DIMSE1
 70
     0
  9
$DIMSE2
 70
     0
  9
$DIMTAD
 70
     0
  9
$DIMZIN
 70
     0
  9
$DIMBLK
  1

  9
$DIMASO
 70
     1
  9
$DIMSHO
 70
     1
  9
$DIMPOST
  1

  9
$DIMAPOST
  1

  9
$DIMALT
 70
     0
  9
$DIMALTD
 70
     2
  9
$DIMALTF
 40
25.4
  9
$DIMLFAC
 40
1.0
  9
$DIMTOFL
 70
     0
  9
$DIMTVP
 40
0.0
  9
$DIMTIX
 70
     0
  9
$DIMSOXD
 70
     0
  9
$DIMSAH
 70
     0
  9
$DIMBLK1
  1

  9
$DIMBLK2
  1

  9
$DIMSTYLE
  2
STANDARD
  9
$DIMCLRD
 70
     0
  9
$DIMCLRE
 70
     0
  9
$DIMCLRT
 70
     0
  9
$DIMTFAC
 40
1.0
  9
$DIMGAP
 40
0.09
  9
$LUNITS
 70
     2
  9
$LUPREC
 70
     4
  9
$SKETCHINC
 40
0.1
  9
$FILLETRAD
 40
0.5
  9
$AUNITS
 70
     0
  9
$AUPREC
 70
     0
  9
$MENU
  1
.
  9
$ELEVATION
 40
0.0
  9
$PELEVATION
 40
0.0
  9
$THICKNESS
 40
0.0
  9
$LIMCHECK
 70
     0
  9
$CHAMFERA
 40
0.5
  9
$CHAMFERB
 40
0.5
  9
$SKPOLY
 70
     0
  9
$TDCREATE
 40
2454910.5
  9
$TDUPDATE
 40
2458042.612324224
  9
$TDINDWG
 40
0.0000000116
  9
$TDUSRTIMER
 40
0.0000000116
  9
$USRTIMER
 70
     1
  9
$ANGBASE
 50
0.0
  9
$ANGDIR
 70
     0
  9
$PDMODE
 70
     0
  9
$PDSIZE
 40
0.0
  9
$PLINEWID
 40
0.0
  9
$COORDS
 70
     1
  9
$SPLFRAME
 70
     0
  9
$SPLINETYPE
 70
     6
  9
$SPLINESEGS
 70
     8
  9
$ATTDIA
 70
     0
  9
$ATTREQ
 70
     1
  9
$HANDLING
 70
     1
  9
$HANDSEED
  5
127
  9
$SURFTAB1
 70
     6
  9
$SURFTAB2
 70
     6
  9
$SURFTYPE
 70
     6
  9
$SURFU
 70
     6
  9
$SURFV
 70
     6
  9
$UCSNAME
  2

  9
$UCSORG
 10
0.0
 20
0.0
 30
0.0
  9
$UCSXDIR
 10
1.0
 20
0.0
 30
0.0
  9
$UCSYDIR
 10
0.0
 20
1.0
 30
0.0
  9
$PUCSNAME
  2

  9
$PUCSORG
 10
0.0
 20
0.0
 30
0.0
  9
$PUCSXDIR
 10
1.0
 20
0.0
 30
0.0
  9
$PUCSYDIR
 10
0.0
 20
1.0
 30
0.0
  9
$USERI1
 70
     0
  9
$USERI2
 70
     0
  9
$USERI3
 70
     0
  9
$USERI4
 70
     0
  9
$USERI5
 70
     0
  9
$USERR1
 40
0.0
  9
$USERR2
 40
0.0
  9
$USERR3
 40
0.0
  9
$USERR4
 40
0.0
  9
$USERR5
 40
0.0
  9
$WORLDVIEW
 70
     1
  9
$SHADEDGE
 70
     3
  9
$SHADEDIF
 70
    70
  9
$TILEMODE
 70
     1
  9
$MAXACTVP
 70
    64
  9
$PLIMCHECK
 70
     0
  9
$PEXTMIN
 10
1.000000000000000E+20
 20
1.000000000000000E+20
 30
1.000000000000000E+20
  9
$PEXTMAX
 10
-1.000000000000000E+20
 20
-1.000000000000000E+20
 30
-1.000000000000000E+20
  9
$PLIMMIN
 10
0.0
 20
0.0
  9
$PLIMMAX
 10
12.0
 20
9.0
  9
$UNITMODE
 70
     0
  9
$VISRETAIN
 70
     1
  9
$PLINEGEN
 70
     0
  9
$PSLTSCALE
 70
     1
  0
ENDSEC
  0
SECTION
  2
TABLES
  0
TABLE
  2
VPORT
 70
     1
  0
VPORT
  2
*ACTIVE
 70
     0
 10
0.0
 20
0.0
 11
1.0
 21
1.0
 12
10.42990654205607
 22
4.5
 13
0.0
 23
0.0
 14
0.5
 24
0.5
 15
0.5
 25
0.5
 16
0.0
 26
0.0
 36
1.0
 17
0.0
 27
0.0
 37
0.0
 40
9.0
 41
1.972972972850329
 42
50.0
 43
0.0
 44
0.0
 50
0.0
 51
0.0
 71
     0
 72
   100
 73
     1
 74
     3
 75
     0
 76
     0
 77
     0
 78
     0
  0
ENDTAB
  0
TABLE
  2
LTYPE
 70
     2
  0
LTYPE
  2
CONTINUOUS
 70
     0
  3
Solid line
 72
    65
 73
     0
 40
0.0
  0
LTYPE
  2
CONTINUOUS2
 70
     0
  3
Solid Line
 72
    65
 73
     0
 40
0.0
  0
ENDTAB
  0
TABLE
  2
LAYER
 70
     3
  0
LAYER
  2
0
 70
     0
 62
     7
  6
CONTINUOUS
  0
LAYER
  2
FENDER_FRETS
 70
     0
 62
    18
  6
CONTINUOUS
  0
LAYER
  2
TOOL_BOUNDRIES
 70
     0
 62
    18
  6
CONTINUOUS
  0
ENDTAB
  0
TABLE
  2
STYLE
 70
     1
  0
STYLE
  2
STANDARD
 70
     0
 40
0.0
 41
1.0
 50
0.0
 71
     0
 42
0.2
  3
txt
  4

  0
ENDTAB
  0
TABLE
  2
VIEW
 70
     0
  0
ENDTAB
  0
TABLE
  2
UCS
 70
     0
  0
ENDTAB
  0
TABLE
  2
APPID
 70
     1
  0
APPID
  2
ACAD
 70
     0
  0
ENDTAB
  0
TABLE
  2
DIMSTYLE
 70
     1
  0
DIMSTYLE
  2
STANDARD
 70
     0
  3

  4

  5

  6

  7

 40
1.0
 41
0.18
 42
0.0625
 43
0.38
 44
0.18
 45
0.0
 46
0.0
 47
0.0
 48
0.0
140
0.18
141
0.09
142
0.0
143
25.4
144
1.0
145
0.0
146
1.0
147
0.09
 71
     0
 72
     0
 73
     1
 74
     1
 75
     0
 76
     0
 77
     0
 78
     0
170
     0
171
     2
172
     0
173
     0
174
     0
175
     0
176
     0
177
     0
178
     0
  0
ENDTAB
  0
ENDSEC
  0
SECTION
  2
BLOCKS
  0
BLOCK
  8
0
  2
$MODEL_SPACE
 70
     0
 10
0.0
 20
0.0
 30
0.0
  3
$MODEL_SPACE
  1

  0
ENDBLK
  5
21
  8
0
  0
BLOCK
 67
     1
  8
0
  2
$PAPER_SPACE
 70
     0
 10
0.0
 20
0.0
 30
0.0
  3
$PAPER_SPACE
  1

  0
ENDBLK
  5
1D
 67
     1
  8
0
  0
ENDSEC
  0
SECTION
  2
ENTITIES
  0
POLYLINE
  5
41
  8
FENDER_FRETS
 66
     1
 10
0.0
 20
0.0
 30
0.0
 70
     1
  0
VERTEX
  5
6D
  8
FENDER_FRETS
 10
15.34657499999999
 20
2.177940535792974
 30
0.0
 42
0.4142135623730951
  0
VERTEX
  5
6E
  8
FENDER_FRETS
 10
15.22157499999999
 20
2.052940535792974
 30
0.0
 42
0.4142135623730951
  0
VERTEX
  5
6F
  8
FENDER_FRETS
 10
15.34657499999999
 20
1.927940535792974
 30
0.0
 42
0.4142135623730951
  0
VERTEX
  5
70
  8
FENDER_FRETS
 10
15.47157499999999
 20
2.052940535792974
 30
0.0
 42
0.4142135623730951
  0
SEQEND
  5
71
  8
FENDER_FRETS
  0
POLYLINE
  5
42
  8
FENDER_FRETS
 66
     1
 10
0.0
 20
0.0
 30
0.0
 70
     1
  0
VERTEX
  5
72
  8
FENDER_FRETS
 10
15.34657499999999
 20
3.181925535792974
 30
0.0
 42
0.4142135623730951
  0
VERTEX
  5
73
  8
FENDER_FRETS
 10
15.22157499999999
 20
3.056925535792974
 30
0.0
 42
0.4142135623730951
  0
VERTEX
  5
74
  8
FENDER_FRETS
 10
15.34657499999999
 20
2.931925535792974
 30
0.0
 42
0.4142135623730951
  0
VERTEX
  5
75
  8
FENDER_FRETS
 10
15.47157499999999
 20
3.056925535792974
 30
0.0
 42
0.4142135623730951
  0
SEQEND
  5
76
  8
FENDER_FRETS
  0
POLYLINE
  5
43
  8
FENDER_FRETS
 66
     1
 10
0.0
 20
0.0
 30
0.0
 70
     1
  0
VERTEX
  5
77
  8
FENDER_FRETS
 10
15.34657499999999
 20
2.255940535792975
 30
0.0
 42
0.4142135623730951
  0
VERTEX
  5
78
  8
FENDER_FRETS
 10
15.22157499999999
 20
2.130940535792975
 30
0.0
 42
0.4142135623730951
  0
VERTEX
  5
79
  8
FENDER_FRETS
 10
15.34657499999999
 20
2.005940535792977
 30
0.0
 42
0.4142135623730951
  0
VERTEX
  5
7A
  8
FENDER_FRETS
 10
15.47157499999999
 20
2.130940535792975
 30
0.0
 42
0.4142135623730951
  0
SEQEND
  5
7B
  8
FENDER_FRETS
  0
POLYLINE
  5
44
  8
FENDER_FRETS
 66
     1
 10
0.0
 20
0.0
 30
0.0
 70
     1
  0
VERTEX
  5
7C
  8
FENDER_FRETS
 10
15.34657499999999
 20
3.103925535792975
 30
0.0
 42
0.4142135623730951
  0
VERTEX
  5
7D
  8
FENDER_FRETS
 10
15.22157499999999
 20
2.978925535792975
 30
0.0
 42
0.4142135623730951
  0
VERTEX
  5
7E
  8
FENDER_FRETS
 10
15.34657499999999
 20
2.853925535792975
 30
0.0
 42
0.4142135623730951
  0
VERTEX
  5
7F
  8
FENDER_FRETS
 10
15.47157499999999
 20
2.978925535792975
 30
0.0
 42
0.4142135623730951
  0
SEQEND
  5
80
  8
FENDER_FRETS
  0
POLYLINE
  5
45
  8
FENDER_FRETS
 66
     1
 10
0.0
 20
0.0
 30
0.0
 70
     1
  0
VERTEX
  5
81
  8
FENDER_FRETS
 10
20.66866999999999
 20
2.679901535792974
 30
0.0
 42
0.4142135623730951
  0
VERTEX
  5
82
  8
FENDER_FRETS
 10
20.54366999999999
 20
2.554901535792974
 30
0.0
 42
0.4142135623730951
  0
VERTEX
  5
83
  8
FENDER_FRETS
 10
20.66866999999999
 20
2.429901535792974
 30
0.0
 42
0.4142135623730951
  0
VERTEX
  5
84
  8
FENDER_FRETS
 10
20.79366999999999
 20
2.554901535792974
 30
0.0
 42
0.4142135623730951
  0
SEQEND
  5
85
  8
FENDER_FRETS
  0
POLYLINE
  5
46
  8
FENDER_FRETS
 66
     1
 10
0.0
 20
0.0
 30
0.0
 70
     1
  0
VERTEX
  5
86
  8
FENDER_FRETS
 10
19.71306299999999
 20
2.679901535792974
 30
0.0
 42
0.4142135623730951
  0
VERTEX
  5
87
  8
FENDER_FRETS
 10
19.58806299999999
 20
2.554901535792974
 30
0.0
 42
0.4142135623730951
  0
VERTEX
  5
88
  8
FENDER_FRETS
 10
19.71306299999999
 20
2.429901535792974
 30
0.0
 42
0.4142135623730951
  0
VERTEX
  5
89
  8
FENDER_FRETS
 10
19.83806299999999
 20
2.554901535792974
 30
0.0
 42
0.4142135623730951
  0
SEQEND
  5
8A
  8
FENDER_FRETS
  0
POLYLINE
  5
47
  8
FENDER_FRETS
 66
     1
 10
0.0
 20
0.0
 30
0.0
 70
     1
  0
VERTEX
  5
8B
  8
FENDER_FRETS
 10
18.63997699999999
 20
2.679901535792974
 30
0.0
 42
0.4142135623730951
  0
VERTEX
  5
8C
  8
FENDER_FRETS
 10
18.51497699999999
 20
2.554901535792974
 30
0.0
 42
0.4142135623730951
  0
VERTEX
  5
8D
  8
FENDER_FRETS
 10
18.63997699999999
 20
2.429901535792974
 30
0.0
 42
0.4142135623730951
  0
VERTEX
  5
8E
  8
FENDER_FRETS
 10
18.76497699999999
 20
2.554901535792974
 30
0.0
 42
0.4142135623730951
  0
SEQEND
  5
8F
  8
FENDER_FRETS
  0
POLYLINE
  5
48
  8
FENDER_FRETS
 66
     1
 10
0.0
 20
0.0
 30
0.0
 70
     1
  0
VERTEX
  5
90
  8
FENDER_FRETS
 10
17.43462199999999
 20
2.679901535792974
 30
0.0
 42
0.4142135623730951
  0
VERTEX
  5
91
  8
FENDER_FRETS
 10
17.30962199999999
 20
2.554901535792974
 30
0.0
 42
0.4142135623730951
  0
VERTEX
  5
92
  8
FENDER_FRETS
 10
17.43462199999999
 20
2.429901535792974
 30
0.0
 42
0.4142135623730951
  0
VERTEX
  5
93
  8
FENDER_FRETS
 10
17.55962199999999
 20
2.554901535792974
 30
0.0
 42
0.4142135623730951
  0
SEQEND
  5
94
  8
FENDER_FRETS
  0
POLYLINE
  5
49
  8
FENDER_FRETS
 66
     1
 10
0.0
 20
0.0
 30
0.0
 70
     1
  0
VERTEX
  5
95
  8
FENDER_FRETS
 10
12.86265399999999
 20
2.679901535792974
 30
0.0
 42
0.4142135623730951
  0
VERTEX
  5
96
  8
FENDER_FRETS
 10
12.73765399999999
 20
2.554901535792974
 30
0.0
 42
0.4142135623730951
  0
VERTEX
  5
97
  8
FENDER_FRETS
 10
12.86265399999999
 20
2.429901535792974
 30
0.0
 42
0.4142135623730951
  0
VERTEX
  5
98
  8
FENDER_FRETS
 10
12.98765399999999
 20
2.554901535792974
 30
0.0
 42
0.4142135623730951
  0
SEQEND
  5
99
  8
FENDER_FRETS
  0
POLYLINE
  5
4A
  8
FENDER_FRETS
 66
     1
 10
0.0
 20
0.0
 30
0.0
 70
     1
  0
VERTEX
  5
9A
  8
FENDER_FRETS
 10
10.95043299999999
 20
2.679901535792974
 30
0.0
 42
0.4142135623730951
  0
VERTEX
  5
9B
  8
FENDER_FRETS
 10
10.82543299999999
 20
2.554901535792974
 30
0.0
 42
0.4142135623730951
  0
VERTEX
  5
9C
  8
FENDER_FRETS
 10
10.95043299999999
 20
2.429901535792974
 30
0.0
 42
0.4142135623730951
  0
VERTEX
  5
9D
  8
FENDER_FRETS
 10
11.07543299999999
 20
2.554901535792974
 30
0.0
 42
0.4142135623730951
  0
SEQEND
  5
9E
  8
FENDER_FRETS
  0
POLYLINE
  5
4B
  8
FENDER_FRETS
 66
     1
 10
0.0
 20
0.0
 30
0.0
 70
     1
  0
VERTEX
  5
9F
  8
FENDER_FRETS
 10
8.804259999999992
 20
2.679901535792974
 30
0.0
 42
0.4142135623730951
  0
VERTEX
  5
A0
  8
FENDER_FRETS
 10
8.679259999999992
 20
2.554901535792974
 30
0.0
 42
0.4142135623730951
  0
VERTEX
  5
A1
  8
FENDER_FRETS
 10
8.804259999999992
 20
2.429901535792974
 30
0.0
 42
0.4142135623730951
  0
VERTEX
  5
A2
  8
FENDER_FRETS
 10
8.929259999999992
 20
2.554901535792974
 30
0.0
 42
0.4142135623730951
  0
SEQEND
  5
A3
  8
FENDER_FRETS
  0
POLYLINE
  5
4C
  8
FENDER_FRETS
 66
     1
 10
0.0
 20
0.0
 30
0.0
 70
     1
  0
VERTEX
  5
A4
  8
FENDER_FRETS
 10
6.394747999999994
 20
2.679901535792974
 30
0.0
 42
0.4142135623730951
  0
VERTEX
  5
A5
  8
FENDER_FRETS
 10
6.269747999999994
 20
2.554901535792974
 30
0.0
 42
0.4142135623730951
  0
VERTEX
  5
A6
  8
FENDER_FRETS
 10
6.394747999999994
 20
2.429901535792974
 30
0.0
 42
0.4142135623730951
  0
VERTEX
  5
A7
  8
FENDER_FRETS
 10
6.519747999999993
 20
2.554901535792974
 30
0.0
 42
0.4142135623730951
  0
SEQEND
  5
A8
  8
FENDER_FRETS
  0
POLYLINE
  5
4E
  8
TOOL_BOUNDRIES
 66
     1
 10
0.0
 20
0.0
 30
0.0
 70
     1
  0
VERTEX
  5
A9
  8
TOOL_BOUNDRIES
 10
1.647665771327792
 20
1.0
 30
0.0
  0
VERTEX
  5
AA
  8
TOOL_BOUNDRIES
 10
21.84240198043612
 20
1.0
 30
0.0
  0
VERTEX
  5
AB
  8
TOOL_BOUNDRIES
 10
21.84240198043612
 20
4.0
 30
0.0
  0
VERTEX
  5
AC
  8
TOOL_BOUNDRIES
 10
1.647665771327792
 20
4.0
 30
0.0
  0
SEQEND
  5
AD
  8
TOOL_BOUNDRIES
  0
POLYLINE
  5
4F
  8
TOOL_BOUNDRIES
 66
     1
 10
0.0
 20
0.0
 30
0.0
 70
     1
  0
VERTEX
  5
AE
  8
TOOL_BOUNDRIES
 10
4.396748000000005
 20
1.0
 30
0.0
  0
VERTEX
  5
AF
  8
TOOL_BOUNDRIES
 10
4.416748000000005
 20
1.0
 30
0.0
  0
VERTEX
  5
B0
  8
TOOL_BOUNDRIES
 10
4.416748000000005
 20
4.0
 30
0.0
  0
VERTEX
  5
B1
  8
TOOL_BOUNDRIES
 10
4.396748000000005
 20
4.0
 30
0.0
  0
SEQEND
  5
B2
  8
TOOL_BOUNDRIES
  0
POLYLINE
  5
50
  8
TOOL_BOUNDRIES
 66
     1
 10
0.0
 20
0.0
 30
0.0
 70
     1
  0
VERTEX
  5
B3
  8
TOOL_BOUNDRIES
 10
5.747739999999998
 20
1.0
 30
0.0
  0
VERTEX
  5
B4
  8
TOOL_BOUNDRIES
 10
5.767739999999997
 20
1.0
 30
0.0
  0
VERTEX
  5
B5
  8
TOOL_BOUNDRIES
 10
5.767739999999997
 20
4.0
 30
0.0
  0
VERTEX
  5
B6
  8
TOOL_BOUNDRIES
 10
5.747739999999998
 20
4.0
 30
0.0
  0
SEQEND
  5
B7
  8
TOOL_BOUNDRIES
  0
POLYLINE
  5
51
  8
TOOL_BOUNDRIES
 66
     1
 10
0.0
 20
0.0
 30
0.0
 70
     1
  0
VERTEX
  5
B8
  8
TOOL_BOUNDRIES
 10
7.022747999999993
 20
1.0
 30
0.0
  0
VERTEX
  5
B9
  8
TOOL_BOUNDRIES
 10
7.042747999999992
 20
1.0
 30
0.0
  0
VERTEX
  5
BA
  8
TOOL_BOUNDRIES
 10
7.042747999999992
 20
4.0
 30
0.0
  0
VERTEX
  5
BB
  8
TOOL_BOUNDRIES
 10
7.022747999999993
 20
4.0
 30
0.0
  0
SEQEND
  5
BC
  8
TOOL_BOUNDRIES
  0
POLYLINE
  5
52
  8
TOOL_BOUNDRIES
 66
     1
 10
0.0
 20
0.0
 30
0.0
 70
     1
  0
VERTEX
  5
BD
  8
TOOL_BOUNDRIES
 10
8.226243999999992
 20
1.0
 30
0.0
  0
VERTEX
  5
BE
  8
TOOL_BOUNDRIES
 10
8.246243999999992
 20
1.0
 30
0.0
  0
VERTEX
  5
BF
  8
TOOL_BOUNDRIES
 10
8.246243999999992
 20
4.0
 30
0.0
  0
VERTEX
  5
C0
  8
TOOL_BOUNDRIES
 10
8.226243999999992
 20
4.0
 30
0.0
  0
SEQEND
  5
C1
  8
TOOL_BOUNDRIES
  0
POLYLINE
  5
53
  8
TOOL_BOUNDRIES
 66
     1
 10
0.0
 20
0.0
 30
0.0
 70
     1
  0
VERTEX
  5
C2
  8
TOOL_BOUNDRIES
 10
9.362243999999993
 20
1.0
 30
0.0
  0
VERTEX
  5
C3
  8
TOOL_BOUNDRIES
 10
9.382243999999993
 20
1.0
 30
0.0
  0
VERTEX
  5
C4
  8
TOOL_BOUNDRIES
 10
9.382243999999993
 20
4.0
 30
0.0
  0
VERTEX
  5
C5
  8
TOOL_BOUNDRIES
 10
9.362243999999993
 20
4.0
 30
0.0
  0
SEQEND
  5
C6
  8
TOOL_BOUNDRIES
  0
POLYLINE
  5
54
  8
TOOL_BOUNDRIES
 66
     1
 10
0.0
 20
0.0
 30
0.0
 70
     1
  0
VERTEX
  5
C7
  8
TOOL_BOUNDRIES
 10
10.43445699999999
 20
1.0
 30
0.0
  0
VERTEX
  5
C8
  8
TOOL_BOUNDRIES
 10
10.45445699999999
 20
1.0
 30
0.0
  0
VERTEX
  5
C9
  8
TOOL_BOUNDRIES
 10
10.45445699999999
 20
4.0
 30
0.0
  0
VERTEX
  5
CA
  8
TOOL_BOUNDRIES
 10
10.43445699999999
 20
4.0
 30
0.0
  0
SEQEND
  5
CB
  8
TOOL_BOUNDRIES
  0
POLYLINE
  5
55
  8
TOOL_BOUNDRIES
 66
     1
 10
0.0
 20
0.0
 30
0.0
 70
     1
  0
VERTEX
  5
CC
  8
TOOL_BOUNDRIES
 10
11.44644899999999
 20
1.0
 30
0.0
  0
VERTEX
  5
CD
  8
TOOL_BOUNDRIES
 10
11.46644899999999
 20
1.0
 30
0.0
  0
VERTEX
  5
CE
  8
TOOL_BOUNDRIES
 10
11.46644899999999
 20
4.0
 30
0.0
  0
VERTEX
  5
CF
  8
TOOL_BOUNDRIES
 10
11.44644899999999
 20
4.0
 30
0.0
  0
SEQEND
  5
D0
  8
TOOL_BOUNDRIES
  0
POLYLINE
  5
56
  8
TOOL_BOUNDRIES
 66
     1
 10
0.0
 20
0.0
 30
0.0
 70
     1
  0
VERTEX
  5
D1
  8
TOOL_BOUNDRIES
 10
12.40165399999999
 20
1.0
 30
0.0
  0
VERTEX
  5
D2
  8
TOOL_BOUNDRIES
 10
12.42165399999999
 20
1.0
 30
0.0
  0
VERTEX
  5
D3
  8
TOOL_BOUNDRIES
 10
12.42165399999999
 20
4.0
 30
0.0
  0
VERTEX
  5
D4
  8
TOOL_BOUNDRIES
 10
12.40165399999999
 20
4.0
 30
0.0
  0
SEQEND
  5
D5
  8
TOOL_BOUNDRIES
  0
POLYLINE
  5
57
  8
TOOL_BOUNDRIES
 66
     1
 10
0.0
 20
0.0
 30
0.0
 70
     1
  0
VERTEX
  5
D6
  8
TOOL_BOUNDRIES
 10
13.303237
 20
1.0
 30
0.0
  0
VERTEX
  5
D7
  8
TOOL_BOUNDRIES
 10
13.323237
 20
1.0
 30
0.0
  0
VERTEX
  5
D8
  8
TOOL_BOUNDRIES
 10
13.323237
 20
4.0
 30
0.0
  0
VERTEX
  5
D9
  8
TOOL_BOUNDRIES
 10
13.303237
 20
4.0
 30
0.0
  0
SEQEND
  5
DA
  8
TOOL_BOUNDRIES
  0
POLYLINE
  5
58
  8
TOOL_BOUNDRIES
 66
     1
 10
0.0
 20
0.0
 30
0.0
 70
     1
  0
VERTEX
  5
DB
  8
TOOL_BOUNDRIES
 10
14.15422899999999
 20
1.0
 30
0.0
  0
VERTEX
  5
DC
  8
TOOL_BOUNDRIES
 10
14.17422899999999
 20
1.0
 30
0.0
  0
VERTEX
  5
DD
  8
TOOL_BOUNDRIES
 10
14.17422899999999
 20
4.0
 30
0.0
  0
VERTEX
  5
DE
  8
TOOL_BOUNDRIES
 10
14.15422899999999
 20
4.0
 30
0.0
  0
SEQEND
  5
DF
  8
TOOL_BOUNDRIES
  0
POLYLINE
  5
59
  8
TOOL_BOUNDRIES
 66
     1
 10
0.0
 20
0.0
 30
0.0
 70
     1
  0
VERTEX
  5
E0
  8
TOOL_BOUNDRIES
 10
14.95755199999999
 20
1.0
 30
0.0
  0
VERTEX
  5
E1
  8
TOOL_BOUNDRIES
 10
14.97755199999999
 20
1.0
 30
0.0
  0
VERTEX
  5
E2
  8
TOOL_BOUNDRIES
 10
14.97755199999999
 20
4.0
 30
0.0
  0
VERTEX
  5
E3
  8
TOOL_BOUNDRIES
 10
14.95755199999999
 20
4.0
 30
0.0
  0
SEQEND
  5
E4
  8
TOOL_BOUNDRIES
  0
POLYLINE
  5
5A
  8
TOOL_BOUNDRIES
 66
     1
 10
0.0
 20
0.0
 30
0.0
 70
     1
  0
VERTEX
  5
E5
  8
TOOL_BOUNDRIES
 10
15.715646
 20
1.0
 30
0.0
  0
VERTEX
  5
E6
  8
TOOL_BOUNDRIES
 10
15.735646
 20
1.0
 30
0.0
  0
VERTEX
  5
E7
  8
TOOL_BOUNDRIES
 10
15.735646
 20
4.0
 30
0.0
  0
VERTEX
  5
E8
  8
TOOL_BOUNDRIES
 10
15.715646
 20
4.0
 30
0.0
  0
SEQEND
  5
E9
  8
TOOL_BOUNDRIES
  0
POLYLINE
  5
5B
  8
TOOL_BOUNDRIES
 66
     1
 10
0.0
 20
0.0
 30
0.0
 70
     1
  0
VERTEX
  5
EA
  8
TOOL_BOUNDRIES
 10
16.43124399999999
 20
1.0
 30
0.0
  0
VERTEX
  5
EB
  8
TOOL_BOUNDRIES
 10
16.45124399999999
 20
1.0
 30
0.0
  0
VERTEX
  5
EC
  8
TOOL_BOUNDRIES
 10
16.45124399999999
 20
4.0
 30
0.0
  0
VERTEX
  5
ED
  8
TOOL_BOUNDRIES
 10
16.43124399999999
 20
4.0
 30
0.0
  0
SEQEND
  5
EE
  8
TOOL_BOUNDRIES
  0
POLYLINE
  5
5C
  8
TOOL_BOUNDRIES
 66
     1
 10
0.0
 20
0.0
 30
0.0
 70
     1
  0
VERTEX
  5
EF
  8
TOOL_BOUNDRIES
 10
17.10663799999999
 20
1.0
 30
0.0
  0
VERTEX
  5
F0
  8
TOOL_BOUNDRIES
 10
17.12663799999999
 20
1.0
 30
0.0
  0
VERTEX
  5
F1
  8
TOOL_BOUNDRIES
 10
17.12663799999999
 20
4.0
 30
0.0
  0
VERTEX
  5
F2
  8
TOOL_BOUNDRIES
 10
17.10663799999999
 20
4.0
 30
0.0
  0
SEQEND
  5
F3
  8
TOOL_BOUNDRIES
  0
POLYLINE
  5
5D
  8
TOOL_BOUNDRIES
 66
     1
 10
0.0
 20
0.0
 30
0.0
 70
     1
  0
VERTEX
  5
F4
  8
TOOL_BOUNDRIES
 10
17.74425999999999
 20
1.0
 30
0.0
  0
VERTEX
  5
F5
  8
TOOL_BOUNDRIES
 10
17.76425999999999
 20
1.0
 30
0.0
  0
VERTEX
  5
F6
  8
TOOL_BOUNDRIES
 10
17.76425999999999
 20
4.0
 30
0.0
  0
VERTEX
  5
F7
  8
TOOL_BOUNDRIES
 10
17.74425999999999
 20
4.0
 30
0.0
  0
SEQEND
  5
F8
  8
TOOL_BOUNDRIES
  0
POLYLINE
  5
5E
  8
TOOL_BOUNDRIES
 66
     1
 10
0.0
 20
0.0
 30
0.0
 70
     1
  0
VERTEX
  5
F9
  8
TOOL_BOUNDRIES
 10
18.345961
 20
1.0
 30
0.0
  0
VERTEX
  5
FA
  8
TOOL_BOUNDRIES
 10
18.365961
 20
1.0
 30
0.0
  0
VERTEX
  5
FB
  8
TOOL_BOUNDRIES
 10
18.365961
 20
4.0
 30
0.0
  0
VERTEX
  5
FC
  8
TOOL_BOUNDRIES
 10
18.345961
 20
4.0
 30
0.0
  0
SEQEND
  5
FD
  8
TOOL_BOUNDRIES
  0
POLYLINE
  5
5F
  8
TOOL_BOUNDRIES
 66
     1
 10
0.0
 20
0.0
 30
0.0
 70
     1
  0
VERTEX
  5
FE
  8
TOOL_BOUNDRIES
 10
18.91393699999999
 20
1.0
 30
0.0
  0
VERTEX
  5
FF
  8
TOOL_BOUNDRIES
 10
18.93393699999999
 20
1.0
 30
0.0
  0
VERTEX
  5
100
  8
TOOL_BOUNDRIES
 10
18.93393699999999
 20
4.0
 30
0.0
  0
VERTEX
  5
101
  8
TOOL_BOUNDRIES
 10
18.91393699999999
 20
4.0
 30
0.0
  0
SEQEND
  5
102
  8
TOOL_BOUNDRIES
  0
POLYLINE
  5
60
  8
TOOL_BOUNDRIES
 66
     1
 10
0.0
 20
0.0
 30
0.0
 70
     1
  0
VERTEX
  5
103
  8
TOOL_BOUNDRIES
 10
19.45004699999999
 20
1.0
 30
0.0
  0
VERTEX
  5
104
  8
TOOL_BOUNDRIES
 10
19.47004699999999
 20
1.0
 30
0.0
  0
VERTEX
  5
105
  8
TOOL_BOUNDRIES
 10
19.47004699999999
 20
4.0
 30
0.0
  0
VERTEX
  5
106
  8
TOOL_BOUNDRIES
 10
19.45004699999999
 20
4.0
 30
0.0
  0
SEQEND
  5
107
  8
TOOL_BOUNDRIES
  0
POLYLINE
  5
61
  8
TOOL_BOUNDRIES
 66
     1
 10
0.0
 20
0.0
 30
0.0
 70
     1
  0
VERTEX
  5
108
  8
TOOL_BOUNDRIES
 10
19.95603999999999
 20
1.0
 30
0.0
  0
VERTEX
  5
109
  8
TOOL_BOUNDRIES
 10
19.97603999999999
 20
1.0
 30
0.0
  0
VERTEX
  5
10A
  8
TOOL_BOUNDRIES
 10
19.97603999999999
 20
4.0
 30
0.0
  0
VERTEX
  5
10B
  8
TOOL_BOUNDRIES
 10
19.95603999999999
 20
4.0
 30
0.0
  0
SEQEND
  5
10C
  8
TOOL_BOUNDRIES
  0
POLYLINE
  5
62
  8
TOOL_BOUNDRIES
 66
     1
 10
0.0
 20
0.0
 30
0.0
 70
     1
  0
VERTEX
  5
10D
  8
TOOL_BOUNDRIES
 10
20.43366199999999
 20
1.0
 30
0.0
  0
VERTEX
  5
10E
  8
TOOL_BOUNDRIES
 10
20.45366199999999
 20
1.0
 30
0.0
  0
VERTEX
  5
10F
  8
TOOL_BOUNDRIES
 10
20.45366199999999
 20
4.0
 30
0.0
  0
VERTEX
  5
110
  8
TOOL_BOUNDRIES
 10
20.43366199999999
 20
4.0
 30
0.0
  0
SEQEND
  5
111
  8
TOOL_BOUNDRIES
  0
POLYLINE
  5
63
  8
TOOL_BOUNDRIES
 66
     1
 10
0.0
 20
0.0
 30
0.0
 70
     1
  0
VERTEX
  5
112
  8
TOOL_BOUNDRIES
 10
20.88444899999999
 20
1.0
 30
0.0
  0
VERTEX
  5
113
  8
TOOL_BOUNDRIES
 10
20.90444899999999
 20
1.0
 30
0.0
  0
VERTEX
  5
114
  8
TOOL_BOUNDRIES
 10
20.90444899999999
 20
4.0
 30
0.0
  0
VERTEX
  5
115
  8
TOOL_BOUNDRIES
 10
20.88444899999999
 20
4.0
 30
0.0
  0
SEQEND
  5
116
  8
TOOL_BOUNDRIES
  0
POLYLINE
  5
64
  8
TOOL_BOUNDRIES
 66
     1
 10
0.0
 20
0.0
 30
0.0
 70
     1
  0
VERTEX
  5
117
  8
TOOL_BOUNDRIES
 10
2.965646000000007
 20
1.0
 30
0.0
  0
VERTEX
  5
118
  8
TOOL_BOUNDRIES
 10
2.985646000000006
 20
1.0
 30
0.0
  0
VERTEX
  5
119
  8
TOOL_BOUNDRIES
 10
2.985646000000006
 20
4.0
 30
0.0
  0
VERTEX
  5
11A
  8
TOOL_BOUNDRIES
 10
2.965646000000007
 20
4.0
 30
0.0
  0
SEQEND
  5
11B
  8
TOOL_BOUNDRIES
  0
POLYLINE
  5
65
  8
TOOL_BOUNDRIES
 66
     1
 10
0.0
 20
0.0
 30
0.0
 70
     1
  0
VERTEX
  5
11C
  8
TOOL_BOUNDRIES
 10
2.845551000000007
 20
0.9999999999999998
 30
0.0
  0
VERTEX
  5
11D
  8
TOOL_BOUNDRIES
 10
2.865551000000007
 20
0.9999999999999998
 30
0.0
  0
VERTEX
  5
11E
  8
TOOL_BOUNDRIES
 10
2.865551000000007
 20
4.0
 30
0.0
  0
VERTEX
  5
11F
  8
TOOL_BOUNDRIES
 10
2.845551000000007
 20
4.0
 30
0.0
  0
SEQEND
  5
120
  8
TOOL_BOUNDRIES
  0
POLYLINE
  5
66
  8
TOOL_BOUNDRIES
 66
     1
 10
0.0
 20
0.0
 30
0.0
  0
VERTEX
  5
121
  8
TOOL_BOUNDRIES
 10
2.975646000000006
 20
4.562948953729686
 30
0.0
  0
VERTEX
  5
122
  8
TOOL_BOUNDRIES
 10
2.975646000000006
 20
0.4287591003077189
 30
0.0
  0
SEQEND
  5
123
  8
TOOL_BOUNDRIES
  0
POLYLINE
  5
67
  8
TOOL_BOUNDRIES
 66
     1
 10
0.0
 20
0.0
 30
0.0
  0
VERTEX
  5
124
  8
TOOL_BOUNDRIES
 10
15.725646
 20
4.487743466963637
 30
0.0
  0
VERTEX
  5
125
  8
TOOL_BOUNDRIES
 10
15.725646
 20
0.4287591003077189
 30
0.0
  0
SEQEND
  5
126
  8
TOOL_BOUNDRIES
  0
ENDSEC
  0
EOF
